<svg xmlns="http://www.w3.org/2000/svg" width="16.002" height="20" viewBox="0 0 16.002 20">
  <defs>
    <style>
      .cls-1 {
        fill: #fff;
      }
    </style>
  </defs>
  <path id="icon_bookmark_on" class="cls-1" d="M20408.51,12897h0a2.243,2.243,0,0,1-1.15-.367l-4.5-2.709a1.827,1.827,0,0,0-1.723,0l-4.5,2.709a2.252,2.252,0,0,1-1.143.36,1.306,1.306,0,0,1-1.082-.54,2.5,2.5,0,0,1-.42-1.511v-14.086a3.72,3.72,0,0,1,3.557-3.856h8.881a3.736,3.736,0,0,1,3.564,3.856v14.086C20410,12896.192,20409.414,12897,20408.51,12897Zm-6.508-10.33a.726.726,0,0,1,.371.093l1.139.676a1.32,1.32,0,0,0,.635.215.463.463,0,0,0,.375-.167,1.024,1.024,0,0,0,.08-.847l-.271-1.168a.834.834,0,0,1,.2-.691l.947-.942a.673.673,0,0,0-.4-1.25l-1.213-.2a.808.808,0,0,1-.533-.394l-.67-1.343c-.178-.352-.412-.545-.66-.545s-.479.193-.652.545l-.666,1.343a.811.811,0,0,1-.537.394l-1.209.2a.81.81,0,0,0-.7.47.8.8,0,0,0,.3.78l.943.942a.853.853,0,0,1,.2.691l-.273,1.168a1,1,0,0,0,.08.845.46.46,0,0,0,.375.166,1.308,1.308,0,0,0,.635-.212l1.137-.676A.759.759,0,0,1,20402,12886.67Z" transform="translate(-20393.998 -12877)"/>
</svg>
