<svg xmlns="http://www.w3.org/2000/svg" width="14" height="15" viewBox="0 0 14 15">
  <defs>
    <style>
      .cls-1 {
        fill: #222;
      }
    </style>
  </defs>
  <g id="icon_reset" transform="translate(-1760 -47)">
    <path id="패스_15495" data-name="패스 15495" class="cls-1" d="M7,14.756A7.117,7.117,0,0,1,2.058,12.8,6.525,6.525,0,0,1,0,8.046,6.868,6.868,0,0,1,7,1.341a8.34,8.34,0,0,1,2.309.328.54.54,0,0,1-.3,1.038A7.266,7.266,0,0,0,7,2.422,5.786,5.786,0,0,0,1.077,8.047,5.452,5.452,0,0,0,2.8,12.017,6.052,6.052,0,0,0,7,13.676a5.787,5.787,0,0,0,5.923-5.624,5.408,5.408,0,0,0-.988-3.115.539.539,0,1,1,.882-.62A6.485,6.485,0,0,1,14,8.052,6.866,6.866,0,0,1,7,14.756Z" transform="translate(1760 47.244)"/>
    <path id="선_62" data-name="선 62" class="cls-1" d="M2.026,2.469a.5.5,0,0,1-.348-.141L-.349.359a.5.5,0,0,1-.01-.707.5.5,0,0,1,.707-.01L2.374,1.61a.5.5,0,0,1-.349.859Z" transform="translate(1768.048 47.5)"/>
    <path id="선_63" data-name="선 63" class="cls-1" d="M0,1.956a.5.5,0,0,1-.426-.238A.5.5,0,0,1-.262,1.03L2.1-.426a.5.5,0,0,1,.688.163.5.5,0,0,1-.163.688L.262,1.882A.5.5,0,0,1,0,1.956Z" transform="translate(1767.698 49.469)"/>
  </g>
</svg>
