<svg xmlns="http://www.w3.org/2000/svg" width="22" height="22" viewBox="0 0 22 22">
  <defs>
    <style>
      .cls-1 {
        fill: #e7a434;
      }

      .cls-2 {
        fill: #fff;
        stroke: #fff;
      }
    </style>
  </defs>
  <g id="icon_master" transform="translate(-637 -1510)">
    <circle id="타원_40" data-name="타원 40" class="cls-1" cx="11" cy="11" r="11" transform="translate(637 1510)"/>
    <path id="icon_m" class="cls-2" d="M8.591-1.457q.087-.466.272-1.416t.4-2.221q.217-1.271.413-2.755t.3-3.036Q9.178-9.431,8.4-8.276A21.88,21.88,0,0,1,6.766-6.152a1.545,1.545,0,0,1-.793.572q-.358.068-.684-.572A22.868,22.868,0,0,1,4.181-8.713Q3.7-10.032,3.16-11.351q-.13.854-.326,2.1T2.421-6.618Q2.2-5.24,1.976-3.863T1.53-1.36a.338.338,0,0,1-.152.233.328.328,0,0,1-.217.039.327.327,0,0,1-.2-.126A.325.325,0,0,1,.9-1.477q.087-.7.206-1.62t.261-1.94q.141-1.019.293-2.076t.3-2.037q.152-.98.293-1.824T2.53-12.4a.6.6,0,0,1,.174-.349A.473.473,0,0,1,3-12.874a.518.518,0,0,1,.315.087.646.646,0,0,1,.239.291q.261.563.543,1.29t.554,1.5q.272.776.554,1.552t.565,1.416a.868.868,0,0,0,.2.3q.087.068.261-.146A24.96,24.96,0,0,0,8.1-9.256q.945-1.533,1.944-3.356a.358.358,0,0,1,.13-.32.463.463,0,0,1,.293-.078.473.473,0,0,1,.293.126.4.4,0,0,1,.13.31,25.4,25.4,0,0,1-.174,3.23q-.2,1.717-.478,3.3T9.666-3.213Q9.373-1.962,9.221-1.38a.489.489,0,0,1-.163.272.38.38,0,0,1-.239.1.231.231,0,0,1-.2-.107A.449.449,0,0,1,8.591-1.457Z" transform="translate(642.104 1528.011)"/>
  </g>
</svg>
