<svg xmlns="http://www.w3.org/2000/svg" width="22" height="22" viewBox="0 0 22 22">
  <defs>
    <style>
      .cls-1 {
        fill: #34e787;
      }

      .cls-2 {
        fill: #fff;
        stroke: #fff;
      }
    </style>
  </defs>
  <g id="icon_expert" transform="translate(-637 -1510)">
    <circle id="타원_40" data-name="타원 40" class="cls-1" cx="11" cy="11" r="11" transform="translate(637 1510)"/>
    <path id="icon_e" class="cls-2" d="M2.54-11.98a1.211,1.211,0,0,1,.21-.48.67.67,0,0,1,.53-.22H7.1a.261.261,0,0,1,.23.1.305.305,0,0,1,.05.23.386.386,0,0,1-.13.23.414.414,0,0,1-.29.1q-.3,0-.74.01t-.93.03q-.49.02-.98.03t-.91.03q-.28,1.3-.5,2.44T2.56-7.44a10.492,10.492,0,0,1,3.42.04.336.336,0,0,1,.22.14.294.294,0,0,1,.04.21.312.312,0,0,1-.12.19.3.3,0,0,1-.24.06,12.232,12.232,0,0,0-1.71-.04q-.85.04-1.71.14-.14.7-.27,1.43T1.96-3.83q-.1.71-.18,1.35T1.66-1.34q.84,0,1.83-.09T5.32-1.6a.3.3,0,0,1,.25.06.275.275,0,0,1,.1.18.306.306,0,0,1-.07.21A.418.418,0,0,1,5.34-1q-.16.04-.63.11T3.68-.76q-.56.06-1.11.11T1.72-.6a.827.827,0,0,1-.63-.19.821.821,0,0,1-.13-.63q.02-.44.13-1.29t.25-1.88q.14-1.03.32-2.17T2-8.92q.16-1.02.3-1.84T2.54-11.98Z" transform="translate(643.832 1527.64)"/>
  </g>
</svg>
