<svg id="logo" xmlns="http://www.w3.org/2000/svg" xmlns:xlink="http://www.w3.org/1999/xlink" width="123" height="40" viewBox="0 0 123 40">
  <defs>
    <style>
      .cls-1, .cls-6, .cls-7 {
        fill: none;
      }

      .cls-2 {
        clip-path: url(#clip-path);
      }

      .cls-3 {
        fill: #231815;
      }

      .cls-4 {
        fill: #ff6900;
      }

      .cls-5 {
        fill: #fff;
      }

      .cls-6, .cls-7 {
        stroke: #ff6900;
        stroke-miterlimit: 10;
      }

      .cls-6 {
        stroke-width: 0.748px;
      }

      .cls-7 {
        stroke-width: 0.896px;
      }

      .cls-8 {
        fill: #7e7e7e;
      }
    </style>
    <clipPath id="clip-path">
      <rect id="사각형_1616" data-name="사각형 1616" class="cls-1" width="123" height="40"/>
    </clipPath>
  </defs>
  <g id="그룹_484" data-name="그룹 484" class="cls-2">
    <path id="패스_15376" data-name="패스 15376" class="cls-3" d="M11.634,4.4a11.723,11.723,0,0,1,4.529.9,11.449,11.449,0,0,1,0,21.187,11.735,11.735,0,0,1-11.8-1.617V40H0V15.894a11.278,11.278,0,0,1,.909-4.471,11.515,11.515,0,0,1,6.2-6.12,11.711,11.711,0,0,1,4.527-.9m0,18.674a7.2,7.2,0,0,0,5.145-2.108,7.51,7.51,0,0,0,1.564-2.28,7.237,7.237,0,0,0,0-5.6,7.51,7.51,0,0,0-1.564-2.28,7.315,7.315,0,0,0-11.854,2.28,7.237,7.237,0,0,0,0,5.6A7.331,7.331,0,0,0,8.8,22.516a7.422,7.422,0,0,0,2.835.557"/>
    <rect id="사각형_1611" data-name="사각형 1611" class="cls-3" width="4.363" height="25.855" transform="translate(31.995 0.813)"/>
    <path id="패스_15377" data-name="패스 15377" class="cls-4" d="M56.722,4.4a11.689,11.689,0,0,1,4.527.9,11.447,11.447,0,0,1,0,21.187,11.86,11.86,0,0,1-9.053,0,11.447,11.447,0,0,1,0-21.186,11.685,11.685,0,0,1,4.529-.9M49.448,15.9a7.2,7.2,0,0,0,.564,2.8,7.513,7.513,0,0,0,1.563,2.28,7.394,7.394,0,0,0,7.982,1.544,7.639,7.639,0,0,0,2.309-1.544,7.262,7.262,0,0,0,1.545-2.28,7.153,7.153,0,0,0-1.545-7.884,7.639,7.639,0,0,0-2.309-1.544,7.45,7.45,0,0,0-2.836-.557,7.213,7.213,0,0,0-5.144,2.1,7.027,7.027,0,0,0-2.127,5.081"/>
    <path id="패스_15378" data-name="패스 15378" class="cls-3" d="M73.962,12.7l.014-3.268a8.364,8.364,0,0,1,1.2-4.363,8.785,8.785,0,0,1,3.163-3.106A8.67,8.67,0,0,1,82.7.813V5.122A4.319,4.319,0,0,0,78.336,9.4v.916Zm4.377.81V26.668H73.976V16.026Z"/>
    <rect id="사각형_1612" data-name="사각형 1612" class="cls-3" width="4.363" height="20.109" transform="translate(90.896 6.558)"/>
    <path id="패스_15379" data-name="패스 15379" class="cls-3" d="M123,7.348l-7.874,8.562L123,24.475l-3,2.693L112.38,18.89l-7.617,8.278-3-2.693,7.876-8.565-7.871-8.564,3-2.693,7.617,8.277L120,4.653Z"/>
    <rect id="사각형_1613" data-name="사각형 1613" class="cls-5" width="2.422" height="2.393" transform="translate(55.508 14.698)"/>
    <rect id="사각형_1614" data-name="사각형 1614" class="cls-6" width="2.422" height="2.393" transform="translate(55.508 14.698)"/>
    <path id="패스_15380" data-name="패스 15380" class="cls-5" d="M83.677,7.56l2.1-1.2,1.211,2.071-2.1,1.2Z"/>
    <path id="패스_15381" data-name="패스 15381" class="cls-6" d="M83.677,7.56l2.1-1.2,1.211,2.071-2.1,1.2Z"/>
    <path id="패스_15382" data-name="패스 15382" class="cls-3" d="M94.878,4.292a2.568,2.568,0,0,1-3.6,0h0a2.4,2.4,0,0,1-.744-1.774A2.4,2.4,0,0,1,91.277.744a2.571,2.571,0,0,1,3.6,0,2.411,2.411,0,0,1,.744,1.774,2.41,2.41,0,0,1-.744,1.774"/>
    <path id="패스_15383" data-name="패스 15383" class="cls-7" d="M84.108,8.713,71.021,15.9H58.137"/>
    <path id="패스_15384" data-name="패스 15384" class="cls-8" d="M40.816,38.305h-.71l-.465-1.153H37.662l-.47,1.153h-.7L38.347,33.8h.667ZM39.4,36.531l-.739-1.858-.746,1.859Z"/>
    <path id="패스_15385" data-name="패스 15385" class="cls-8" d="M44.82,33.8v2.916a1.548,1.548,0,0,1-.581,1.334,1.936,1.936,0,0,1-2.151,0,1.542,1.542,0,0,1-.574-1.334V33.8h.666v2.886a1.127,1.127,0,0,0,.25.774.913.913,0,0,0,.734.3.947.947,0,0,0,.746-.3,1.131,1.131,0,0,0,.245-.774V33.8Z"/>
    <path id="패스_15386" data-name="패스 15386" class="cls-8" d="M48.652,34.41H47.406v3.87h-.667V34.41H45.5v-.6h3.147Z"/>
    <path id="패스_15387" data-name="패스 15387" class="cls-8" d="M51.13,33.722a1.805,1.805,0,0,1,1.523.718,2.569,2.569,0,0,1,.476,1.607,2.648,2.648,0,0,1-.5,1.666,1.811,1.811,0,0,1-1.5.664,1.841,1.841,0,0,1-1.5-.664,3,3,0,0,1-.021-3.279,1.8,1.8,0,0,1,1.527-.712m0,.61a1.158,1.158,0,0,0-1,.531,2.263,2.263,0,0,0,0,2.373,1.212,1.212,0,0,0,1.668.333,1.191,1.191,0,0,0,.338-.333,2.3,2.3,0,0,0,0-2.373,1.158,1.158,0,0,0-1-.531"/>
    <path id="패스_15388" data-name="패스 15388" class="cls-8" d="M58.8,38.305h-.654V34.821L56.753,38.27h-.538l-1.437-3.449V38.3h-.66V33.8H55l1.479,3.58,1.437-3.58H58.8Z"/>
    <path id="패스_15389" data-name="패스 15389" class="cls-8" d="M61.861,33.722a1.805,1.805,0,0,1,1.523.718,2.569,2.569,0,0,1,.476,1.607,2.648,2.648,0,0,1-.5,1.666,1.811,1.811,0,0,1-1.5.664,1.841,1.841,0,0,1-1.5-.664,3,3,0,0,1-.021-3.279,1.8,1.8,0,0,1,1.527-.712m0,.61a1.158,1.158,0,0,0-1,.531,2.263,2.263,0,0,0,0,2.373,1.212,1.212,0,0,0,1.668.333,1.191,1.191,0,0,0,.338-.333,2.3,2.3,0,0,0,0-2.373,1.158,1.158,0,0,0-1-.531"/>
    <path id="패스_15390" data-name="패스 15390" class="cls-8" d="M67.525,34.41H66.284v3.87h-.667V34.41H64.382v-.6h3.142Z"/>
    <rect id="사각형_1615" data-name="사각형 1615" class="cls-8" width="0.672" height="4.468" transform="translate(68.106 33.813)"/>
    <path id="패스_15391" data-name="패스 15391" class="cls-8" d="M73.345,33.813l-1.718,4.468H71l-1.682-4.468h.722l1.284,3.635,1.333-3.635Z"/>
    <path id="패스_15392" data-name="패스 15392" class="cls-8" d="M76.344,38.305H74.02V33.8h2.256v.616H74.687v1.255h1.5v.616h-1.5v1.394h1.657Z"/>
    <path id="패스_15393" data-name="패스 15393" class="cls-8" d="M79.079,33.8h1.149a1.454,1.454,0,0,1,1.027.332,1.272,1.272,0,0,1,.379,1,1.285,1.285,0,0,1-.416,1,1.522,1.522,0,0,1-1.033.344h-.44v1.83h-.666Zm.666,2.055H79.9a1.627,1.627,0,0,0,.776-.133.626.626,0,0,0,.287-.6q0-.713-.678-.713h-.538Z"/>
    <path id="패스_15394" data-name="패스 15394" class="cls-8" d="M86.262,38.305h-.71l-.464-1.153H83.107l-.47,1.153h-.7L83.8,33.8h.667Zm-1.419-1.774-.74-1.859-.746,1.859Z"/>
    <path id="패스_15395" data-name="패스 15395" class="cls-8" d="M89.643,34.41H88.4v3.87h-.667V34.41H86.5v-.6h3.142Z"/>
    <path id="패스_15396" data-name="패스 15396" class="cls-8" d="M92.974,34.41H91.733v3.87h-.667V34.41H89.831v-.6h3.142Z"/>
    <path id="패스_15397" data-name="패스 15397" class="cls-8" d="M95.952,38.305H93.628V33.8h2.26v.616h-1.6v1.255h1.5v.616h-1.5v1.394h1.656Z"/>
    <path id="패스_15398" data-name="패스 15398" class="cls-8" d="M99.931,38.28h-.7l-.659-1.508a.987.987,0,0,0-.245-.387.711.711,0,0,0-.428-.1h-.238v2H97V33.812h1.2q1.344,0,1.345,1.207a.929.929,0,0,1-.251.665,1.182,1.182,0,0,1-.654.344.7.7,0,0,1,.507.447Zm-2.275-2.62h.312a1.192,1.192,0,0,0,.636-.145.534.534,0,0,0,.281-.493.518.518,0,0,0-.238-.513,1.871,1.871,0,0,0-.673-.079h-.317Z"/>
    <path id="패스_15399" data-name="패스 15399" class="cls-8" d="M103.984,38.305h-.733l-1.957-3.376v3.376h-.659V33.8h.7l1.987,3.429V33.8h.659Z"/>
    <path id="패스_15400" data-name="패스 15400" class="cls-8" d="M107.194,34.495a1.871,1.871,0,0,0-.819-.151q-.8,0-.8.58,0,.278.5.585.408.26.641.411a2.486,2.486,0,0,1,.281.2,1.279,1.279,0,0,1,.5.985,1.149,1.149,0,0,1-.489.986,1.648,1.648,0,0,1-1,.3,2.609,2.609,0,0,1-1.064-.211l.08-.671a2.053,2.053,0,0,0,1.009.255q.813,0,.813-.707c0-.184-.165-.386-.5-.6-.3-.2-.523-.348-.676-.452l-.248-.17a1.2,1.2,0,0,1-.49-.911,1.081,1.081,0,0,1,.44-.9,1.612,1.612,0,0,1,1-.3,2.615,2.615,0,0,1,.923.156Z"/>
    <path id="패스_15401" data-name="패스 15401" class="cls-8" d="M113.4,38.305h-.659V36.3h-1.878v2.01H110.2V33.8h.667v1.877h1.878V33.8h.659Z"/>
    <path id="패스_15402" data-name="패스 15402" class="cls-8" d="M117.9,33.8v2.916a1.548,1.548,0,0,1-.581,1.334,1.937,1.937,0,0,1-2.152,0,1.542,1.542,0,0,1-.574-1.334V33.8h.666v2.886a1.127,1.127,0,0,0,.25.774.91.91,0,0,0,.734.3.945.945,0,0,0,.745-.3,1.131,1.131,0,0,0,.245-.774V33.8Z"/>
    <path id="패스_15403" data-name="패스 15403" class="cls-8" d="M119.036,33.812h1.106q1.425,0,1.424,1.134a.95.95,0,0,1-.747.986,1.276,1.276,0,0,1,.636.386.958.958,0,0,1,.244.658q0,1.3-1.718,1.3h-.947Zm.654,3.842h.3q1.053,0,1.052-.69a.591.591,0,0,0-.36-.6,2.054,2.054,0,0,0-.759-.1h-.238Zm.012-2.01h.336c.587,0,.881-.216.881-.651q0-.567-.776-.568h-.44Z"/>
  </g>
</svg>
